# xmcd CD database file
#
# Track frame offsets:
#	150
#	32925
#	54445
#	80750
#	105770
#	112052
#	144417
#	160017
#	181785
#	209820
#
# Disc length: 3169 seconds
#
# Revision: 0
# Processed by: cddbd v1.5.2PL0 Copyright (c) Steve Scherf et al.
# Submitted via: CDex 1.77
#
DISCID=840c5f0a
DTITLE=Padnoise - Exotis
DYEAR=1994
DGENRE=New Age
TTITLE0=HINDIA
TTITLE1=TEMPLE
TTITLE2=MAHAN
TTITLE3=SPHOT
TTITLE4=DYVINE
TTITLE5=EXOTIS
TTITLE6=GHAME
TTITLE7=LOUK
TTITLE8=ASHYLA
TTITLE9=DHUNES
EXTD=YEAR: 1994
EXTT0=
EXTT1=
EXTT2=
EXTT3=
EXTT4=
EXTT5=
EXTT6=
EXTT7=
EXTT8=
EXTT9=
PLAYORDER=
